<svg xmlns="http://www.w3.org/2000/svg" viewBox="0 0 81.29 95.37"><defs><style>.cls-1{fill:#b9afd8;}</style></defs><title>Recurso 1</title><g id="Capa_2" data-name="Capa 2"><g id="Capa_2-2" data-name="Capa 2"><path class="cls-1" d="M9.47,58.43c.42-.2,2.61,9.44,11.21,14.58,1.2.71,9.32,5.4,17,2,5.07-2.29,7.37-7,8.55-9.53,9.07-19.35-6.56-42.82-7.85-44.7-1.07-1.55-12.66-18.14-22-16.11A11.64,11.64,0,0,0,11,7.57a21.67,21.67,0,0,0-2.94,9.81c-.5,11.77,9.87,20,9.38,20.46S2.31,28.63,3.16,15.42c.11-1.74.46-7.1,4.49-10.37,3.15-2.57,7-2.56,9-2.52,14.33.24,26.21,15.65,26.77,16.39,1.36,1.82,14.15,19.41,8.4,39.65C50.33,63.7,47.69,73,38.89,76.93a21.12,21.12,0,0,1-19.61-1.54C10.38,69.7,9,58.64,9.47,58.43Z"/><path class="cls-1" d="M38.47,63.34c.23-1.53-16.6-3-25.22-12.61-1.65-1.85-2.79-3.76-2.66-5.89.25-4.18,5.25-6.5,4.76-7.28s-5.58.18-8,3.92-.8,8.2-.43,9.25c1.07,3,3,4.7,4.91,6.44a29.59,29.59,0,0,0,15.69,7A28.61,28.61,0,0,0,36,64C37.6,63.77,38.43,63.64,38.47,63.34Z"/><path class="cls-1" d="M22.5,34.33a23.44,23.44,0,0,1,5.18-2.8c4.23-1.62,7.72-1.5,7.71-2s-2.12-.78-4.2-.7a16.62,16.62,0,0,0-6.73,2,30.28,30.28,0,0,0-5.18,3.08Z"/><path class="cls-1" d="M59.58,36.7s1,.42,1,1.14a3.22,3.22,0,0,1-.67,1.59s-.84.93-.52,1.56a2.23,2.23,0,0,0,.94.93,1.53,1.53,0,0,1-1.84,0c-1-.7-.12-2.05-.12-2.05s.49-.67.93-1.33A1.63,1.63,0,0,0,59.58,36.7Z"/><path class="cls-1" d="M61.47,40.83s-1.42-.3-1.49-1C60,39.87,59.52,42,61.47,40.83Z"/><polygon class="cls-1" points="63.48 19.06 65.23 19.06 64.36 13.39 63.48 19.06"/><path class="cls-1" d="M71.2,76C64.77,82.59,56,83.09,48.08,83.54c-3.71.21-11.7-.63-27.53-2.31-10.23-1.09-15.49-1.72-18.5,1.68C.16,85-.64,88.55.58,91.11c1.71,3.56,6.77,4,9,4.2a17.65,17.65,0,0,0,9-1.68S7.2,95.8,4.52,91a5.2,5.2,0,0,1-.37-3.89c.6-1.66,2.39-4.78,8.2-4.41,9.92.63,14.16.92,23.75,2.31,7.12,1,13.5,2,21,.21,4.38-1,13.38-3.12,19.33-11.56,6.62-9.4,4.67-19.87,4.2-22.07C78.47,41.36,69.86,34.16,67.06,33.38L65.75,35.5a26.88,26.88,0,0,1,6.5,6,28,28,0,0,1,5.59,18.75C77.67,62.46,77,70.05,71.2,76Z"/><path class="cls-1" d="M72.94,11.5a12.06,12.06,0,0,0-3.36-7.29C64.62-1,54.81-1.3,49.26,3a10.8,10.8,0,0,0-3.64,4.62c-1,2.59-.56,4.83.28,9a56.43,56.43,0,0,0,2.94,9.25c0,.11.81,2.15,2.1,4.76C52.36,33.42,53.1,34.32,54,35c.73.56,2.14,1.64,3.51,1.27,1-.27,1.2-1.09,2.24-1.12.84,0,1.08.49,2,.56a3.51,3.51,0,0,0,2.38-1c3.18-2.53,6.1-12.54,8.13-18.91A11.22,11.22,0,0,0,72.94,11.5ZM68.18,22.7S66.31,29.31,64,32.37a3.31,3.31,0,0,1-1.54,1.26c-.87.32-1.31-.05-2.52.14s-1.42.69-2.1.7c-1.55.05-2.8-2.39-3.23-3.22-6-11.6-6.07-11.21-6.44-13-1-4.81-1.76-8.62.56-11.63,3-3.89,9-3.58,10.51-3.5a11.35,11.35,0,0,1,6.58,2.1A10.5,10.5,0,0,1,69,9.07a12.16,12.16,0,0,1,1,5.23C70,16,69.79,17,68.18,22.7Z"/></g></g></svg>